<svg width="24" height="24" viewBox="0 0 24 24" fill="none" xmlns="http://www.w3.org/2000/svg">
<g id="icon-twitter" clip-path="url(#clip0_151_332)">
<path id="Shape" fill-rule="evenodd" clip-rule="evenodd" d="M17.8097 2.15376C16.7207 1.88127 15.5743 1.94981 14.5255 2.35012C13.4767 2.75042 12.5761 3.46318 11.9456 4.39198C11.322 5.31058 10.9923 6.39668 10.9997 7.50634C9.74238 7.41184 8.51244 7.07184 7.38058 6.50214C5.95762 5.78591 4.73388 4.72889 3.81834 3.42521L2.99998 3.99992L2.10555 3.55271C2.0976 3.56861 2.09011 3.58466 2.08306 3.60083L2.08011 3.60759L2.06854 3.63452C2.05908 3.65677 2.04619 3.68758 2.03042 3.72651C1.99889 3.80434 1.95575 3.91481 1.90526 4.05446C1.8044 4.33343 1.67356 4.7307 1.54746 5.21829C1.29646 6.18882 1.05769 7.54221 1.12601 9.04533C1.19454 10.5528 1.57341 12.2315 2.57704 13.8162C3.3294 15.0042 4.41157 16.1054 5.91472 17.0329C4.39635 17.7324 2.72654 18.0678 1.03973 18.0007C0.577004 17.9823 0.162178 18.284 0.0371299 18.7299C-0.0879187 19.1758 0.109527 19.6492 0.514338 19.8741C5.29085 22.5277 10.6509 22.5524 14.8448 20.3202C19.0631 18.075 22 13.5999 22 7.49992L22 7.49662C21.9994 7.33436 21.9917 7.1723 21.9769 7.01089C22.9424 5.93949 23.629 4.64307 23.9716 3.23654L23 2.99992L22.4236 2.18276C21.7151 2.6825 20.9448 3.08651 20.1326 3.38503C19.4722 2.79448 18.6758 2.37045 17.8097 2.15376ZM3.12395 8.95452C3.07425 7.86116 3.22094 6.8449 3.40463 6.04353C4.29723 6.9524 5.33583 7.712 6.4814 8.2886C8.19897 9.15311 10.1037 9.57943 12.0259 9.52959C12.5679 9.51553 13 9.07211 13 8.52992V7.52992L12.9999 7.51652C12.9903 6.80369 13.1999 6.10512 13.6003 5.5153C14.0007 4.92547 14.5726 4.47285 15.2387 4.21864C15.9047 3.96443 16.6327 3.9209 17.3243 4.09394C18.0159 4.26699 18.6376 4.64825 19.1054 5.18616C19.3635 5.48296 19.7717 5.60087 20.1483 5.48745C20.3799 5.41771 20.6092 5.34098 20.8357 5.25743C20.6469 5.50409 20.4406 5.73823 20.2178 5.95792C19.9801 6.1923 19.8751 6.52981 19.9378 6.85767C19.9783 7.06993 19.9992 7.28549 20 7.50159C19.9995 12.9008 17.4365 16.6751 13.9051 18.5547C11.307 19.9376 8.13025 20.3233 4.96008 19.5156C6.23418 19.1487 7.45067 18.5814 8.56161 17.8273C8.86203 17.6234 9.02831 17.2726 8.99602 16.911C8.96372 16.5493 8.73792 16.2336 8.40612 16.0861C6.31602 15.1572 5.04027 13.9676 4.26667 12.7461C3.48906 11.5183 3.18043 10.197 3.12395 8.95452Z" fill="white"/>
</g>
<defs>
<clipPath id="clip0_151_332">
<rect width="24" height="24" fill="white"/>
</clipPath>
</defs>
</svg>
