<svg width="65" height="64" viewBox="0 0 65 64" fill="none" xmlns="http://www.w3.org/2000/svg">
<g id="icon-user">
<g id="Shape">
<path fill-rule="evenodd" clip-rule="evenodd" d="M32.5625 5.33337C25.1987 5.33337 19.2292 11.3029 19.2292 18.6667C19.2292 26.0305 25.1987 32 32.5625 32C39.9263 32 45.8958 26.0305 45.8958 18.6667C45.8958 11.3029 39.9263 5.33337 32.5625 5.33337ZM24.5625 18.6667C24.5625 14.2484 28.1442 10.6667 32.5625 10.6667C36.9808 10.6667 40.5625 14.2484 40.5625 18.6667C40.5625 23.085 36.9808 26.6667 32.5625 26.6667C28.1442 26.6667 24.5625 23.085 24.5625 18.6667Z" fill="black"/>
<path d="M21.8958 37.3334C18.3596 37.3334 14.9682 38.7381 12.4677 41.2386C9.96726 43.7391 8.5625 47.1305 8.5625 50.6667V56C8.5625 57.4728 9.75641 58.6667 11.2292 58.6667C12.7019 58.6667 13.8958 57.4728 13.8958 56V50.6667C13.8958 48.545 14.7387 46.5101 16.239 45.0099C17.7393 43.5096 19.7741 42.6667 21.8958 42.6667H43.2292C45.3509 42.6667 47.3857 43.5096 48.886 45.0099C50.3863 46.5101 51.2292 48.545 51.2292 50.6667V56C51.2292 57.4728 52.4231 58.6667 53.8958 58.6667C55.3686 58.6667 56.5625 57.4728 56.5625 56V50.6667C56.5625 47.1305 55.1577 43.7391 52.6573 41.2386C50.1568 38.7381 46.7654 37.3334 43.2292 37.3334H21.8958Z" fill="black"/>
</g>
</g>
</svg>
